<svg height="511pt" viewBox="-73 1 511 511.99949" width="511pt" xmlns="http://www.w3.org/2000/svg"><path d="m131.640625 205.796875v46.355469c0 8.414062-6.824219 15.238281-15.238281 15.238281-8.417969 0-15.238282-6.824219-15.238282-15.238281v-46.355469h-19.894531v93.488281c0 8.414063-6.824219 15.238282-15.238281 15.238282s-15.238281-6.824219-15.238281-15.238282v-93.488281h-50.292969v260.535156c0 25.179688 20.484375 45.667969 45.667969 45.667969h143.722656c25.179687 0 45.664063-20.488281 45.664063-45.667969v-260.535156zm0 0"/><path d="m234.097656 175.320312c-6.300781-32.988281-32.652344-58.929687-65.847656-64.632812v-36.988281c0-8.414063-6.824219-15.238281-15.238281-15.238281h-69.96875c-8.414063 0-15.238281 6.824218-15.238281 15.238281v36.988281c-33.195313 5.703125-59.546876 31.644531-65.847657 64.632812zm0 0"/><path d="m264.359375 99.214844 73.203125-73.203125c5.953125-5.949219 5.953125-15.597657 0-21.546875-5.949219-5.953125-15.597656-5.953125-21.546875 0l-83.980469 83.976562c-5.949218 5.949219-5.949218 15.597656 0 21.550782l83.980469 83.976562c2.972656 2.976562 6.875 4.464844 10.773437 4.464844 3.898438 0 7.800782-1.488282 10.773438-4.464844 5.953125-5.949219 5.953125-15.597656 0-21.546875zm0 0"/><path d="m298.824219 99.214844c.371093 8.257812 6.695312 15.238281 15.238281 15.238281 7.972656 0 15.609375-7.007813 15.238281-15.238281-.371093-8.253906-6.695312-15.234375-15.238281-15.234375-7.96875 0-15.605469 7.007812-15.238281 15.234375zm0 0"/><path d="m335.546875 62.328125c.371094 8.257813 6.695313 15.238281 15.238281 15.238281 7.96875 0 15.605469-7.007812 15.238282-15.238281-.371094-8.253906-6.695313-15.238281-15.238282-15.238281-7.972656 0-15.605468 7.007812-15.238281 15.238281zm0 0"/><path d="m350.785156 120.867188c-7.972656 0-15.605468 7.007812-15.238281 15.238281.371094 8.253906 6.695313 15.238281 15.238281 15.238281 7.96875 0 15.605469-7.007812 15.238282-15.238281-.371094-8.257813-6.695313-15.238281-15.238282-15.238281zm0 0"/></svg>